<svg width="16" height="16" viewBox="0 0 16 16" fill="none" xmlns="http://www.w3.org/2000/svg">
<path d="M14.4 3.89435C14.4 4.00874 14.3718 4.12137 14.3179 4.22223C14.2639 4.32309 14.1859 4.40905 14.0907 4.47248L8 8.53328L1.90933 4.47248C1.78517 4.38988 1.69091 4.2695 1.64048 4.12916C1.59006 3.98882 1.58615 3.83597 1.62934 3.69323C1.67253 3.5505 1.76053 3.42546 1.8803 3.33662C2.00008 3.24778 2.14527 3.19986 2.2944 3.19995H13.7067C14.0907 3.19995 14.4011 3.51142 14.4011 3.89435M14.4011 6.36475V11.7333C14.4011 12.0162 14.2887 12.2875 14.0886 12.4875C13.8886 12.6876 13.6173 12.8 13.3344 12.8H2.66773C2.38483 12.8 2.11352 12.6876 1.91348 12.4875C1.71345 12.2875 1.60107 12.0162 1.60107 11.7333V6.36475C1.60107 6.15142 1.83893 6.02448 2.016 6.14288L8 10.1333L13.9851 6.14395C14.0252 6.11714 14.0718 6.10169 14.1199 6.09927C14.1681 6.09685 14.216 6.10753 14.2586 6.13019C14.3012 6.15284 14.3368 6.18662 14.3617 6.22793C14.3866 6.26924 14.3998 6.31652 14.4 6.36475" fill="white"/>
</svg>
