<svg width="24" height="24" viewBox="0 0 24 24" fill="none" xmlns="http://www.w3.org/2000/svg">
<path d="M16.6878 3.125H16.6875C14.7391 3.125 13.0282 3.98956 12 5.45359C10.9718 3.98956 9.26089 3.125 7.3125 3.125L7.3122 3.125C5.80442 3.12682 4.35891 3.72659 3.29275 4.79275C2.22659 5.85891 1.62682 7.30442 1.625 8.8122V8.8125C1.625 11.6014 3.3788 14.4659 6.71862 17.3264L6.71923 17.327C8.26382 18.6413 9.93157 19.8037 11.6993 20.7979L11.6993 20.7979L11.7031 20.8C11.7943 20.8492 11.8964 20.875 12 20.875C12.1036 20.875 12.2057 20.8492 12.2969 20.8L12.2969 20.8L12.3007 20.7979C14.0684 19.8037 15.7362 18.6413 17.2808 17.327L17.2814 17.3264C20.6212 14.4659 22.375 11.6014 22.375 8.8125V8.8122C22.3732 7.30442 21.7734 5.85891 20.7073 4.79275C19.6411 3.72659 18.1956 3.12682 16.6878 3.125ZM12.5782 6.98627C13.2347 5.38263 14.8002 4.37505 16.6873 4.375C17.8638 4.37645 18.9917 4.84445 19.8236 5.67636C20.6556 6.5083 21.1236 7.63625 21.125 8.8128C21.1249 11.4165 19.1851 13.9173 17.0116 15.8907C14.9717 17.7429 12.784 19.0786 12 19.5324C11.2159 19.0787 9.02821 17.7445 6.98833 15.8931C4.81494 13.9206 2.87507 11.4197 2.875 8.81265C2.87645 7.63616 3.34445 6.50827 4.17636 5.67636C5.00827 4.84445 6.13616 4.37645 7.31265 4.375C9.19981 4.37505 10.7653 5.38263 11.4218 6.98627L11.4219 6.98655C11.469 7.10119 11.5491 7.19923 11.652 7.26823C11.7549 7.33723 11.8761 7.37408 12 7.37408C12.1239 7.37408 12.2451 7.33723 12.348 7.26823C12.4509 7.19923 12.531 7.10119 12.5781 6.98655L12.5782 6.98627Z" fill="black" stroke="black" stroke-width="0.5"/>
</svg>
