<svg width="44" height="44" viewBox="0 0 44 44" fill="none" xmlns="http://www.w3.org/2000/svg">
<path d="M37.9913 17.094L35.9664 15.7807C35.6863 15.5993 35.3576 15.5221 35.0393 15.563C34.6931 15.6079 34.3905 15.7933 34.21 16.0721L34.0385 16.3366V10.3C34.0385 10.2632 34.0349 10.2269 34.0277 10.1914C34.0232 10.168 34.0147 10.1465 34.0075 10.1245C34.0035 10.1128 34.0012 10.1002 33.9963 10.0886C33.9864 10.0643 33.9729 10.0423 33.9599 10.0199C33.955 10.0113 33.9514 10.0024 33.946 9.99383C33.9258 9.9642 33.9034 9.93636 33.8782 9.91077L27.9966 4.03004C27.9957 4.02914 27.9948 4.02869 27.9943 4.02824C27.9696 4.004 27.9432 3.982 27.914 3.96269C27.9045 3.9564 27.8942 3.95236 27.8843 3.94653C27.8632 3.93395 27.8421 3.92138 27.8197 3.91195C27.808 3.90702 27.7954 3.90477 27.7833 3.90073C27.7613 3.89355 27.7402 3.88502 27.7169 3.88053C27.6814 3.87334 27.645 3.86975 27.6082 3.86975H11.999C10.0598 3.86975 8.48168 5.44746 8.48168 7.38706V7.79473C6.73695 8.00081 5.37878 9.48649 5.37878 11.2851V36.6138C5.37878 38.553 6.9565 40.1311 8.89609 40.1311H27.4192C29.3583 40.1311 30.9365 38.5534 30.9365 36.6138V36.2057C32.6808 35.9996 34.0389 34.514 34.0389 32.7153V25.6206L36.582 21.6915C36.5824 21.6911 36.5824 21.6906 36.5829 21.6898L38.443 18.8163C38.8026 18.2618 38.6001 17.4891 37.9913 17.094ZM25.0553 9.64318L29.0607 13.6485H27.474C26.1405 13.6485 25.0553 12.5638 25.0553 11.2299V9.64318ZM26.0911 32.3481L26.5531 29.9245L26.5922 29.8639L28.9825 31.4111L28.9412 31.4748L26.9343 32.8774L25.8998 33.5527L26.0911 32.3481ZM28.1578 5.74514L32.1631 9.75048H30.5764C29.2429 9.75048 28.1578 8.66575 28.1578 7.33183V5.74514ZM9.58034 7.38661C9.58034 6.05314 10.6651 4.96795 11.9985 4.96795H27.0587V7.33183C27.0587 9.27142 28.6364 10.8491 30.576 10.8491H32.9398V18.0333L32.3508 18.9433C32.3503 18.9438 32.3503 18.9442 32.3499 18.9447L30.9365 21.1285V14.1981C30.9365 14.1613 30.9329 14.1249 30.9257 14.0894C30.9212 14.0661 30.9127 14.0445 30.9055 14.0225C30.9015 14.0109 30.8992 13.9983 30.8943 13.9866C30.8844 13.9624 30.8709 13.9404 30.8579 13.9179C30.853 13.9094 30.8494 13.9004 30.844 13.8919C30.8238 13.8622 30.8014 13.8344 30.7762 13.8088L24.8946 7.92853C24.8937 7.92763 24.8928 7.92718 24.8923 7.92673C24.8676 7.90249 24.8412 7.88049 24.812 7.86118C24.8025 7.85489 24.7922 7.85085 24.7823 7.84502C24.7612 7.83244 24.7401 7.81987 24.7177 7.81044C24.706 7.80551 24.6934 7.80326 24.6813 7.79922C24.6593 7.79204 24.6382 7.78351 24.6149 7.77902C24.5794 7.77183 24.543 7.76824 24.5062 7.76824H9.58034V7.38661ZM29.8378 36.6134C29.8378 37.9468 28.7531 39.0316 27.4196 39.0316H8.89654C7.56307 39.0316 6.47789 37.9468 6.47789 36.6134V11.2851C6.47789 9.95163 7.56307 8.86644 8.89654 8.86644H9.03123H23.9567V11.2303C23.9567 13.1699 25.5344 14.7476 27.474 14.7476H29.8378V22.8266L25.5761 29.4109C25.5604 29.4342 25.5461 29.4593 25.5344 29.4854C25.5133 29.5307 25.4989 29.5783 25.4913 29.6264L25.3252 30.4978C25.3193 30.4978 25.3144 30.496 25.3085 30.496H15.5069C15.2034 30.496 14.9573 30.7421 14.9573 31.0456C14.9573 31.3491 15.2034 31.5951 15.5069 31.5951H25.1159L25.0086 32.1591L24.6203 34.6037C24.5861 34.8184 24.6818 35.033 24.864 35.1511C24.9547 35.2099 25.0589 35.2395 25.1626 35.2395C25.2672 35.2395 25.3718 35.2099 25.463 35.1502L27.5489 33.7875L29.6443 32.3234C29.6897 32.2937 29.7314 32.2569 29.7674 32.2134C29.7826 32.1945 29.7965 32.1752 29.8091 32.155L29.8374 32.1115V35.6831L29.8378 36.6134ZM32.9403 32.7153C32.9403 33.9074 32.0733 34.9005 30.9365 35.0981V30.4139L32.9403 27.3182V32.7153ZM33.0287 25.159C33.0287 25.1595 33.0283 25.1595 33.0283 25.1595L29.9258 29.9528L29.5792 30.4884L27.1893 28.9417L30.8485 23.2881L32.974 20.0043L35.3621 21.5537L33.0287 25.159ZM37.5208 18.2196L35.9592 20.6315L33.5707 19.0821L33.805 18.7198L35.1322 16.6697C35.134 16.6666 35.1497 16.6567 35.1798 16.6526C35.2391 16.645 35.3087 16.6643 35.3684 16.7029L37.3928 18.0162C37.5145 18.0948 37.5302 18.2048 37.5208 18.2196ZM13.6728 15.5396C13.8973 15.7435 13.9143 16.091 13.7105 16.3159L11.4544 18.8033C11.3552 18.9128 11.2155 18.9775 11.0678 18.9833C11.0611 18.9833 11.0543 18.9838 11.0476 18.9838C10.9071 18.9838 10.7715 18.9299 10.6691 18.8329L9.51209 17.7338C9.29209 17.525 9.28311 17.1771 9.49189 16.9571C9.70156 16.7366 10.0491 16.7281 10.2686 16.9369L11.018 17.6489L12.8965 15.5778C13.1008 15.3529 13.4478 15.3353 13.6728 15.5396ZM14.9578 16.1202C14.9578 15.8166 15.2038 15.5706 15.5073 15.5706H25.309C25.6125 15.5706 25.8585 15.8166 25.8585 16.1202C25.8585 16.4237 25.6125 16.6697 25.309 16.6697H15.5069C15.2034 16.6697 14.9578 16.4237 14.9578 16.1202ZM14.9578 18.2604C14.9578 17.9569 15.2038 17.7109 15.5073 17.7109H23.6087C23.9122 17.7109 24.1583 17.9569 24.1583 18.2604C24.1583 18.564 23.9122 18.81 23.6087 18.81H15.5069C15.2034 18.81 14.9578 18.564 14.9578 18.2604ZM13.6728 23.0021C13.8973 23.206 13.9143 23.5535 13.7105 23.7784L11.4544 26.2658C11.3552 26.3753 11.2155 26.44 11.0678 26.4458C11.0611 26.4458 11.0543 26.4462 11.0476 26.4462C10.9071 26.4462 10.7715 26.3924 10.6691 26.2954L9.51209 25.1963C9.29209 24.9875 9.28311 24.6395 9.49189 24.4195C9.70156 24.1991 10.0491 24.1906 10.2686 24.3993L11.018 25.1114L12.8965 23.0403C13.1008 22.8158 13.4478 22.7983 13.6728 23.0021ZM14.9578 23.5831C14.9578 23.2796 15.2038 23.0335 15.5073 23.0335H25.309C25.6125 23.0335 25.8585 23.2796 25.8585 23.5831C25.8585 23.8866 25.6125 24.1326 25.309 24.1326H15.5069C15.2034 24.1322 14.9578 23.8866 14.9578 23.5831ZM14.9578 25.7234C14.9578 25.4199 15.2038 25.1738 15.5073 25.1738H23.6087C23.9122 25.1738 24.1583 25.4199 24.1583 25.7234C24.1583 26.0269 23.9122 26.2729 23.6087 26.2729H15.5069C15.2034 26.2729 14.9578 26.0269 14.9578 25.7234ZM13.6728 30.4651C13.8973 30.6689 13.9143 31.0164 13.7105 31.2413L11.4544 33.7291C11.3552 33.8387 11.2155 33.9033 11.0678 33.9092C11.0611 33.9092 11.0543 33.9096 11.0476 33.9096C10.9071 33.9096 10.7715 33.8558 10.6691 33.7588L9.51209 32.6597C9.29209 32.4504 9.28311 32.1029 9.49189 31.8829C9.70156 31.6625 10.0491 31.654 10.2686 31.8627L11.018 32.5748L12.8965 30.5037C13.1008 30.2783 13.4478 30.2608 13.6728 30.4651ZM24.1578 33.1859C24.1578 33.4894 23.9118 33.7354 23.6083 33.7354H15.5069C15.2034 33.7354 14.9573 33.4894 14.9573 33.1859C14.9573 32.8824 15.2034 32.6363 15.5069 32.6363H23.6083C23.9118 32.6368 24.1578 32.8824 24.1578 33.1859Z" fill="white"/>
</svg>
