<svg width="44" height="44" viewBox="0 0 44 44" fill="none" xmlns="http://www.w3.org/2000/svg">
<mask id="path-1-inside-1_0_143" fill="white">
<path d="M43.1175 18.8142V25.6234C43.1175 25.9787 42.8713 26.2866 42.525 26.3651L40.2448 26.882C39.8353 26.975 39.428 26.7183 39.335 26.3084C39.242 25.8985 39.4988 25.4911 39.9087 25.3986L41.5964 25.016V19.422L36.6052 18.296C36.342 18.2367 36.1305 18.0426 36.0481 17.7859C35.8063 17.0305 35.4983 16.287 35.1324 15.5756C35.0091 15.3359 35.0219 15.0492 35.1656 14.8215L37.8993 10.4947L33.9428 6.54038L29.6156 9.27188C29.3879 9.41562 29.1008 9.42842 28.8615 9.30515C28.1513 8.93961 27.4083 8.63166 26.6534 8.38896C26.397 8.30664 26.2034 8.09508 26.1441 7.83276L25.0155 2.84108H19.422L18.2934 7.83234C18.2341 8.09465 18.0404 8.30621 17.7841 8.38853C17.0223 8.63294 16.2797 8.94132 15.5772 9.30429C15.3375 9.42799 15.0505 9.41562 14.8223 9.27188L10.4925 6.54038L6.53776 10.4947L9.26926 14.8219C9.413 15.0497 9.4258 15.3363 9.30253 15.576C8.93614 16.2879 8.62818 17.0313 8.38677 17.7859C8.30487 18.0426 8.09289 18.2363 7.83014 18.296L2.84144 19.4246V25.0155L7.82972 26.1441C8.09246 26.2034 8.30445 26.3975 8.38634 26.6543C8.62818 27.4105 8.93614 28.1531 9.30167 28.8607C9.42537 29.1004 9.413 29.3875 9.26926 29.6157L6.53776 33.9454L10.4925 37.9002L14.8223 35.1687C15.0505 35.0245 15.3375 35.0126 15.5772 35.1363C16.2801 35.4992 17.0227 35.8072 17.7841 36.052C18.0404 36.1343 18.2341 36.3459 18.2934 36.6082L19.422 41.5995H25.0155L25.3043 40.3237C25.3968 39.9138 25.8046 39.6571 26.214 39.7496C26.6239 39.8422 26.8807 40.2495 26.7882 40.6594L26.3655 42.528C26.287 42.874 25.9786 43.1201 25.6233 43.1201H18.8142C18.4589 43.1201 18.1505 42.874 18.0724 42.5272L16.9042 37.3598C16.3471 37.164 15.8007 36.9375 15.2718 36.6829L10.7903 39.5103C10.4896 39.7001 10.0976 39.6562 9.84678 39.405L5.0321 34.5912C4.78088 34.3399 4.73694 33.948 4.92675 33.6477L7.75422 29.1661C7.49873 28.6351 7.27182 28.0887 7.07689 27.5338L1.91288 26.3651C1.56612 26.2866 1.32001 25.9787 1.32001 25.6234V18.8168C1.32001 18.4615 1.56612 18.1535 1.91288 18.075L7.07689 16.9068C7.27139 16.3523 7.4983 15.805 7.75422 15.2723L4.92632 10.7929C4.73652 10.4922 4.78045 10.1002 5.03168 9.84897L9.84635 5.03515C10.0976 4.78392 10.4896 4.73999 10.7898 4.9298L15.2714 7.75727C15.7999 7.50263 16.3463 7.27614 16.9037 7.08036L18.0724 1.91295C18.1505 1.56618 18.4589 1.32007 18.8142 1.32007H25.6233C25.9786 1.32007 26.287 1.56618 26.365 1.91295L27.5333 7.08036C28.0874 7.27529 28.6333 7.50178 29.1648 7.75727L33.6442 4.9298C33.9445 4.73999 34.3365 4.78392 34.5881 5.03515L39.4049 9.84897C39.6566 10.1006 39.7001 10.4926 39.5103 10.7933L36.6802 15.2727C36.9362 15.805 37.1627 16.3523 37.3576 16.9068L42.5241 18.0725C42.8709 18.1505 43.1175 18.4585 43.1175 18.8142ZM22.081 27.6617L18.484 31.2587C20.0255 31.8963 21.7248 32.1322 23.442 31.9172C23.8592 31.8639 24.2392 32.1604 24.2912 32.5775C24.3437 32.9942 24.0481 33.3747 23.631 33.4267C23.1511 33.4869 22.6721 33.5167 22.1966 33.5167C19.216 33.5167 16.3736 32.3497 14.2319 30.2077C13.4493 29.425 12.8065 28.5545 12.3019 27.6285C12.2938 27.6148 12.2861 27.6008 12.2793 27.5863C9.97176 23.3069 10.6222 17.8422 14.2319 14.232C18.6359 9.82807 25.8012 9.82807 30.2051 14.232C32.7191 16.746 33.9108 20.3493 33.3921 23.8707C33.3307 24.2862 32.9447 24.5728 32.5288 24.5127C32.1134 24.4513 31.8259 24.0648 31.8869 23.6494C32.3424 20.5562 31.3371 17.5159 29.129 15.3077C25.3183 11.4971 19.1179 11.4971 15.3072 15.3077C12.4354 18.1795 11.7282 22.4086 13.1844 25.9497L16.7775 22.3566C16.3765 20.2167 17.0586 17.9804 18.6099 16.4291C20.2661 14.7728 22.7033 14.1075 24.9703 14.6931C25.2347 14.7613 25.442 14.9661 25.5137 15.2297C25.5853 15.4933 25.5107 15.7748 25.3175 15.9676L22.5937 18.6888L23.2603 21.1759L25.7483 21.8426L28.4721 19.1188C28.6653 18.9255 28.9472 18.8509 29.2104 18.923C29.474 18.9951 29.6788 19.2028 29.7466 19.4677C30.3292 21.7364 29.663 24.1744 28.0076 25.8298C26.4593 27.3794 24.223 28.061 22.081 27.6617ZM22.0268 26.093C23.7773 26.5425 25.657 26.0298 26.9323 24.7545C27.8562 23.8306 28.3804 22.5912 28.4299 21.3133L26.5139 23.2292C26.3215 23.4216 26.0417 23.4962 25.779 23.4259L22.4435 22.5319C22.1812 22.4615 21.976 22.2568 21.9057 21.994L21.0116 18.6577C20.9413 18.3949 21.0163 18.1151 21.2087 17.9228L23.1251 16.0081C21.8485 16.0563 20.6099 16.5805 19.686 17.5043C18.409 18.7818 17.8958 20.6611 18.3471 22.409C18.4145 22.6696 18.339 22.9469 18.1483 23.1371L13.9125 27.373C14.3006 27.9983 14.7655 28.5895 15.3077 29.132C15.8455 29.6699 16.4345 30.1365 17.0628 30.5285L21.2996 26.2917C21.4902 26.1015 21.767 26.026 22.0268 26.093ZM41.9786 33.7786C41.9786 38.4351 38.1902 42.2235 33.5337 42.2235C28.8786 42.2235 25.0918 38.4351 25.0918 33.7786C25.0918 29.1235 28.879 25.3367 33.5337 25.3367C38.1902 25.3367 41.9786 29.1239 41.9786 33.7786ZM40.4572 33.7786C40.4572 29.9625 37.3512 26.8577 33.5337 26.8577C29.7176 26.8577 26.6128 29.9625 26.6128 33.7786C26.6128 37.5965 29.7176 40.7021 33.5337 40.7021C37.3512 40.7021 40.4572 37.5965 40.4572 33.7786ZM36.5941 30.5592L32.1168 35.4003L30.1394 33.5091C29.8357 33.219 29.3546 33.2292 29.0641 33.5329C28.7737 33.8366 28.7843 34.3178 29.088 34.6082L31.6242 37.0339C31.7658 37.1695 31.9543 37.245 32.1501 37.245C32.1577 37.245 32.1654 37.245 32.1735 37.2446C32.3774 37.2382 32.5702 37.1503 32.7088 37.0006L37.7116 31.5914C37.9969 31.283 37.9782 30.8019 37.6698 30.5165C37.3601 30.232 36.879 30.2508 36.5941 30.5592Z"/>
</mask>
<path d="M43.1175 18.8142V25.6234C43.1175 25.9787 42.8713 26.2866 42.525 26.3651L40.2448 26.882C39.8353 26.975 39.428 26.7183 39.335 26.3084C39.242 25.8985 39.4988 25.4911 39.9087 25.3986L41.5964 25.016V19.422L36.6052 18.296C36.342 18.2367 36.1305 18.0426 36.0481 17.7859C35.8063 17.0305 35.4983 16.287 35.1324 15.5756C35.0091 15.3359 35.0219 15.0492 35.1656 14.8215L37.8993 10.4947L33.9428 6.54038L29.6156 9.27188C29.3879 9.41562 29.1008 9.42842 28.8615 9.30515C28.1513 8.93961 27.4083 8.63166 26.6534 8.38896C26.397 8.30664 26.2034 8.09508 26.1441 7.83276L25.0155 2.84108H19.422L18.2934 7.83234C18.2341 8.09465 18.0404 8.30621 17.7841 8.38853C17.0223 8.63294 16.2797 8.94132 15.5772 9.30429C15.3375 9.42799 15.0505 9.41562 14.8223 9.27188L10.4925 6.54038L6.53776 10.4947L9.26926 14.8219C9.413 15.0497 9.4258 15.3363 9.30253 15.576C8.93614 16.2879 8.62818 17.0313 8.38677 17.7859C8.30487 18.0426 8.09289 18.2363 7.83014 18.296L2.84144 19.4246V25.0155L7.82972 26.1441C8.09246 26.2034 8.30445 26.3975 8.38634 26.6543C8.62818 27.4105 8.93614 28.1531 9.30167 28.8607C9.42537 29.1004 9.413 29.3875 9.26926 29.6157L6.53776 33.9454L10.4925 37.9002L14.8223 35.1687C15.0505 35.0245 15.3375 35.0126 15.5772 35.1363C16.2801 35.4992 17.0227 35.8072 17.7841 36.052C18.0404 36.1343 18.2341 36.3459 18.2934 36.6082L19.422 41.5995H25.0155L25.3043 40.3237C25.3968 39.9138 25.8046 39.6571 26.214 39.7496C26.6239 39.8422 26.8807 40.2495 26.7882 40.6594L26.3655 42.528C26.287 42.874 25.9786 43.1201 25.6233 43.1201H18.8142C18.4589 43.1201 18.1505 42.874 18.0724 42.5272L16.9042 37.3598C16.3471 37.164 15.8007 36.9375 15.2718 36.6829L10.7903 39.5103C10.4896 39.7001 10.0976 39.6562 9.84678 39.405L5.0321 34.5912C4.78088 34.3399 4.73694 33.948 4.92675 33.6477L7.75422 29.1661C7.49873 28.6351 7.27182 28.0887 7.07689 27.5338L1.91288 26.3651C1.56612 26.2866 1.32001 25.9787 1.32001 25.6234V18.8168C1.32001 18.4615 1.56612 18.1535 1.91288 18.075L7.07689 16.9068C7.27139 16.3523 7.4983 15.805 7.75422 15.2723L4.92632 10.7929C4.73652 10.4922 4.78045 10.1002 5.03168 9.84897L9.84635 5.03515C10.0976 4.78392 10.4896 4.73999 10.7898 4.9298L15.2714 7.75727C15.7999 7.50263 16.3463 7.27614 16.9037 7.08036L18.0724 1.91295C18.1505 1.56618 18.4589 1.32007 18.8142 1.32007H25.6233C25.9786 1.32007 26.287 1.56618 26.365 1.91295L27.5333 7.08036C28.0874 7.27529 28.6333 7.50178 29.1648 7.75727L33.6442 4.9298C33.9445 4.73999 34.3365 4.78392 34.5881 5.03515L39.4049 9.84897C39.6566 10.1006 39.7001 10.4926 39.5103 10.7933L36.6802 15.2727C36.9362 15.805 37.1627 16.3523 37.3576 16.9068L42.5241 18.0725C42.8709 18.1505 43.1175 18.4585 43.1175 18.8142ZM22.081 27.6617L18.484 31.2587C20.0255 31.8963 21.7248 32.1322 23.442 31.9172C23.8592 31.8639 24.2392 32.1604 24.2912 32.5775C24.3437 32.9942 24.0481 33.3747 23.631 33.4267C23.1511 33.4869 22.6721 33.5167 22.1966 33.5167C19.216 33.5167 16.3736 32.3497 14.2319 30.2077C13.4493 29.425 12.8065 28.5545 12.3019 27.6285C12.2938 27.6148 12.2861 27.6008 12.2793 27.5863C9.97176 23.3069 10.6222 17.8422 14.2319 14.232C18.6359 9.82807 25.8012 9.82807 30.2051 14.232C32.7191 16.746 33.9108 20.3493 33.3921 23.8707C33.3307 24.2862 32.9447 24.5728 32.5288 24.5127C32.1134 24.4513 31.8259 24.0648 31.8869 23.6494C32.3424 20.5562 31.3371 17.5159 29.129 15.3077C25.3183 11.4971 19.1179 11.4971 15.3072 15.3077C12.4354 18.1795 11.7282 22.4086 13.1844 25.9497L16.7775 22.3566C16.3765 20.2167 17.0586 17.9804 18.6099 16.4291C20.2661 14.7728 22.7033 14.1075 24.9703 14.6931C25.2347 14.7613 25.442 14.9661 25.5137 15.2297C25.5853 15.4933 25.5107 15.7748 25.3175 15.9676L22.5937 18.6888L23.2603 21.1759L25.7483 21.8426L28.4721 19.1188C28.6653 18.9255 28.9472 18.8509 29.2104 18.923C29.474 18.9951 29.6788 19.2028 29.7466 19.4677C30.3292 21.7364 29.663 24.1744 28.0076 25.8298C26.4593 27.3794 24.223 28.061 22.081 27.6617ZM22.0268 26.093C23.7773 26.5425 25.657 26.0298 26.9323 24.7545C27.8562 23.8306 28.3804 22.5912 28.4299 21.3133L26.5139 23.2292C26.3215 23.4216 26.0417 23.4962 25.779 23.4259L22.4435 22.5319C22.1812 22.4615 21.976 22.2568 21.9057 21.994L21.0116 18.6577C20.9413 18.3949 21.0163 18.1151 21.2087 17.9228L23.1251 16.0081C21.8485 16.0563 20.6099 16.5805 19.686 17.5043C18.409 18.7818 17.8958 20.6611 18.3471 22.409C18.4145 22.6696 18.339 22.9469 18.1483 23.1371L13.9125 27.373C14.3006 27.9983 14.7655 28.5895 15.3077 29.132C15.8455 29.6699 16.4345 30.1365 17.0628 30.5285L21.2996 26.2917C21.4902 26.1015 21.767 26.026 22.0268 26.093ZM41.9786 33.7786C41.9786 38.4351 38.1902 42.2235 33.5337 42.2235C28.8786 42.2235 25.0918 38.4351 25.0918 33.7786C25.0918 29.1235 28.879 25.3367 33.5337 25.3367C38.1902 25.3367 41.9786 29.1239 41.9786 33.7786ZM40.4572 33.7786C40.4572 29.9625 37.3512 26.8577 33.5337 26.8577C29.7176 26.8577 26.6128 29.9625 26.6128 33.7786C26.6128 37.5965 29.7176 40.7021 33.5337 40.7021C37.3512 40.7021 40.4572 37.5965 40.4572 33.7786ZM36.5941 30.5592L32.1168 35.4003L30.1394 33.5091C29.8357 33.219 29.3546 33.2292 29.0641 33.5329C28.7737 33.8366 28.7843 34.3178 29.088 34.6082L31.6242 37.0339C31.7658 37.1695 31.9543 37.245 32.1501 37.245C32.1577 37.245 32.1654 37.245 32.1735 37.2446C32.3774 37.2382 32.5702 37.1503 32.7088 37.0006L37.7116 31.5914C37.9969 31.283 37.9782 30.8019 37.6698 30.5165C37.3601 30.232 36.879 30.2508 36.5941 30.5592Z" fill="white" stroke="#01B307" stroke-width="0.6" mask="url(#path-1-inside-1_0_143)"/>
</svg>
