<svg width="32" height="33" viewBox="0 0 32 33" fill="none" xmlns="http://www.w3.org/2000/svg">
<path d="M0 0.5H32V25.5L0 32.5V0.5Z" fill="white"/>
<path d="M11.9875 20.612C11.2222 20.612 10.5362 20.416 9.92952 20.024C9.33219 19.632 8.85619 19.0627 8.50152 18.316C8.15619 17.5693 7.98352 16.664 7.98352 15.6C7.98352 14.536 8.15619 13.6307 8.50152 12.884C8.85619 12.1373 9.33219 11.568 9.92952 11.176C10.5362 10.784 11.2222 10.588 11.9875 10.588C12.7435 10.588 13.4249 10.784 14.0315 11.176C14.6382 11.568 15.1142 12.1373 15.4595 12.884C15.8049 13.6307 15.9775 14.536 15.9775 15.6C15.9775 16.664 15.8049 17.5693 15.4595 18.316C15.1142 19.0627 14.6382 19.632 14.0315 20.024C13.4249 20.416 12.7435 20.612 11.9875 20.612ZM11.9875 19.366C12.5009 19.366 12.9489 19.226 13.3315 18.946C13.7235 18.666 14.0269 18.246 14.2415 17.686C14.4655 17.126 14.5775 16.4307 14.5775 15.6C14.5775 14.7693 14.4655 14.074 14.2415 13.514C14.0269 12.954 13.7235 12.534 13.3315 12.254C12.9489 11.974 12.5009 11.834 11.9875 11.834C11.4742 11.834 11.0215 11.974 10.6295 12.254C10.2375 12.534 9.92952 12.954 9.70552 13.514C9.49086 14.074 9.38352 14.7693 9.38352 15.6C9.38352 16.4307 9.49086 17.126 9.70552 17.686C9.92952 18.246 10.2375 18.666 10.6295 18.946C11.0215 19.226 11.4742 19.366 11.9875 19.366ZM17.1674 20.5V19.548L21.1574 15.698C21.5121 15.362 21.7734 15.068 21.9414 14.816C22.1187 14.5547 22.2354 14.3167 22.2914 14.102C22.3567 13.878 22.3894 13.6633 22.3894 13.458C22.3894 12.954 22.2121 12.5573 21.8574 12.268C21.5027 11.9787 20.9847 11.834 20.3034 11.834C19.7807 11.834 19.3094 11.9227 18.8894 12.1C18.4694 12.268 18.1054 12.534 17.7974 12.898L16.8454 12.072C17.2187 11.596 17.7181 11.232 18.3434 10.98C18.9781 10.7187 19.6734 10.588 20.4294 10.588C21.1107 10.588 21.7034 10.7 22.2074 10.924C22.7114 11.1387 23.0987 11.4513 23.3694 11.862C23.6494 12.2727 23.7894 12.758 23.7894 13.318C23.7894 13.6353 23.7474 13.948 23.6634 14.256C23.5794 14.564 23.4207 14.8907 23.1874 15.236C22.9541 15.5813 22.6181 15.9687 22.1794 16.398L18.6234 19.828L18.2874 19.282H24.2094V20.5H17.1674Z" fill="#01B307"/>
</svg>
