<svg width="44" height="44" viewBox="0 0 44 44" fill="none" xmlns="http://www.w3.org/2000/svg">
<path d="M6.336 20.504C6.424 20.152 6.82 19.932 7.172 20.064C7.524 20.152 7.744 20.548 7.612 20.9C7.568 21.12 6.204 26.048 10.516 31.064C10.736 31.328 10.736 31.768 10.472 31.988C10.34 32.076 10.208 32.164 10.032 32.164C9.856 32.164 9.67999 32.076 9.54799 31.944C4.70799 26.312 6.292 20.724 6.336 20.504Z" fill="white"/>
<path d="M2.81599 19.756C2.90399 19.404 3.29999 19.228 3.65199 19.316C4.00399 19.404 4.22399 19.8 4.09199 20.152C4.09199 20.24 2.06799 27.28 8.13999 34.232C8.35999 34.496 8.35999 34.936 8.09599 35.156C7.96399 35.244 7.83199 35.332 7.65599 35.332C7.47999 35.332 7.30399 35.244 7.17199 35.112C0.615992 27.588 2.72799 20.064 2.81599 19.756Z" fill="white"/>
<path d="M31.812 10.4719C31.504 10.2519 31.46 9.85594 31.68 9.54794C31.9 9.23994 32.296 9.19594 32.604 9.41594C32.824 9.54794 37.708 13.1559 37.532 20.8119C37.532 21.1639 37.224 21.4719 36.872 21.4719C36.52 21.4719 36.212 21.1639 36.212 20.8119C36.344 13.8599 31.988 10.6039 31.812 10.4719Z" fill="white"/>
<path d="M34.1 7.61196C33.792 7.39196 33.748 6.99596 33.968 6.68796C34.188 6.37996 34.584 6.33596 34.892 6.55596C35.156 6.73196 41.712 11.572 41.492 21.912C41.492 22.264 41.184 22.572 40.832 22.572C40.48 22.572 40.172 22.264 40.172 21.912C40.392 12.276 34.188 7.65596 34.1 7.61196Z" fill="white"/>
<path d="M9.548 16.94C9.372 16.192 9.504 15.444 9.944 14.784C10.34 14.124 11 13.684 11.748 13.508C12.364 13.376 13.024 13.42 13.596 13.728L13.2 11.924C12.848 10.384 13.816 8.84399 15.356 8.49199C16.016 8.35999 16.632 8.44799 17.204 8.71199L17.16 8.53599C16.984 7.78799 17.116 7.03999 17.556 6.37999C17.952 5.71999 18.612 5.27999 19.36 5.10399C20.108 4.92799 20.856 5.05999 21.516 5.49999C22.176 5.89599 22.616 6.55599 22.792 7.30399L22.968 8.18399C23.364 7.69999 23.892 7.34799 24.552 7.21599C26.092 6.86399 27.632 7.83199 27.984 9.41599L28.952 13.772C30.448 13.464 31.944 14.476 32.296 15.972L34.144 24.288C35.464 30.316 31.68 36.3 25.652 37.664H25.608C22.704 38.324 19.668 37.796 17.16 36.168C14.652 34.54 12.892 32.076 12.232 29.128L9.548 16.94ZM13.332 28.864C14.52 34.32 19.932 37.752 25.388 36.564H25.432C30.844 35.332 34.276 29.964 33.088 24.508L31.24 16.192C31.02 15.224 30.096 14.652 29.128 14.872C28.996 14.916 28.908 14.916 28.82 14.96C28.512 15.092 28.248 15.312 28.072 15.62C27.808 16.016 27.72 16.5 27.852 16.94L28.996 22.44C28.996 22.44 28.996 22.44 28.996 22.484C28.996 22.484 28.996 22.484 28.996 22.528V22.572C28.996 22.616 28.996 22.66 28.996 22.66V22.704V22.748V22.792C28.996 22.792 28.996 22.836 28.952 22.836C28.952 22.836 28.952 22.88 28.908 22.88L28.864 22.924L28.82 22.968C28.82 22.968 28.82 22.968 28.776 23.012C26.664 24.508 25.652 27.148 26.18 29.612C26.224 29.92 26.048 30.228 25.74 30.272C25.432 30.316 25.124 30.14 25.08 29.832C24.464 27.06 25.564 24.068 27.808 22.308L26.664 17.116C26.488 16.368 26.62 15.62 27.06 14.96C27.28 14.608 27.588 14.3 27.896 14.08L26.884 9.54799C26.664 8.57999 25.74 8.00799 24.772 8.22799C23.848 8.44799 23.232 9.37199 23.452 10.34L25.3 18.656C25.388 18.964 25.168 19.272 24.86 19.316C24.552 19.36 24.244 19.184 24.2 18.876L21.648 7.47999C21.56 7.03999 21.252 6.64399 20.856 6.37999C20.46 6.11599 19.976 6.02799 19.536 6.15999C19.096 6.24799 18.7 6.55599 18.436 6.95199C18.172 7.34799 18.084 7.83199 18.216 8.27199L20.988 20.548C21.076 20.856 20.856 21.164 20.548 21.208C20.24 21.252 19.932 21.076 19.888 20.768L17.644 10.868C17.424 9.89999 16.5 9.32799 15.532 9.54799C14.564 9.76799 13.992 10.692 14.212 11.66L15.092 15.664L16.94 23.98C17.028 24.288 16.808 24.552 16.5 24.64C16.192 24.684 15.884 24.508 15.84 24.2L14.08 15.972C13.992 15.532 13.684 15.136 13.288 14.872C12.892 14.608 12.408 14.52 11.968 14.652C11.528 14.74 11.132 15.048 10.868 15.444C10.604 15.84 10.516 16.324 10.648 16.764L13.332 28.864Z" fill="white"/>
</svg>
