<svg width="32" height="33" viewBox="0 0 32 33" fill="none" xmlns="http://www.w3.org/2000/svg">
<path d="M0 0.5H32V25.5L0 32.5V0.5Z" fill="white"/>
<path d="M12.894 20.612C12.1287 20.612 11.4427 20.416 10.836 20.024C10.2387 19.632 9.76268 19.0627 9.40802 18.316C9.06268 17.5693 8.89002 16.664 8.89002 15.6C8.89002 14.536 9.06268 13.6307 9.40802 12.884C9.76268 12.1373 10.2387 11.568 10.836 11.176C11.4427 10.784 12.1287 10.588 12.894 10.588C13.65 10.588 14.3314 10.784 14.938 11.176C15.5447 11.568 16.0207 12.1373 16.366 12.884C16.7114 13.6307 16.884 14.536 16.884 15.6C16.884 16.664 16.7114 17.5693 16.366 18.316C16.0207 19.0627 15.5447 19.632 14.938 20.024C14.3314 20.416 13.65 20.612 12.894 20.612ZM12.894 19.366C13.4074 19.366 13.8554 19.226 14.238 18.946C14.63 18.666 14.9334 18.246 15.148 17.686C15.372 17.126 15.484 16.4307 15.484 15.6C15.484 14.7693 15.372 14.074 15.148 13.514C14.9334 12.954 14.63 12.534 14.238 12.254C13.8554 11.974 13.4074 11.834 12.894 11.834C12.3807 11.834 11.928 11.974 11.536 12.254C11.144 12.534 10.836 12.954 10.612 13.514C10.3974 14.074 10.29 14.7693 10.29 15.6C10.29 16.4307 10.3974 17.126 10.612 17.686C10.836 18.246 11.144 18.666 11.536 18.946C11.928 19.226 12.3807 19.366 12.894 19.366ZM19.8799 20.5V11.26L20.4819 11.918H17.6679V10.7H21.2659V20.5H19.8799Z" fill="#01B307"/>
</svg>
