<svg width="32" height="32" viewBox="0 0 32 32" fill="none" xmlns="http://www.w3.org/2000/svg">
<path d="M0 0H32V25L0 32V0Z" fill="white"/>
<path d="M12.0696 20.112C11.3042 20.112 10.6182 19.916 10.0116 19.524C9.41422 19.132 8.93822 18.5627 8.58355 17.816C8.23822 17.0693 8.06555 16.164 8.06555 15.1C8.06555 14.036 8.23822 13.1307 8.58355 12.384C8.93822 11.6373 9.41422 11.068 10.0116 10.676C10.6182 10.284 11.3042 10.088 12.0696 10.088C12.8256 10.088 13.5069 10.284 14.1136 10.676C14.7202 11.068 15.1962 11.6373 15.5416 12.384C15.8869 13.1307 16.0596 14.036 16.0596 15.1C16.0596 16.164 15.8869 17.0693 15.5416 17.816C15.1962 18.5627 14.7202 19.132 14.1136 19.524C13.5069 19.916 12.8256 20.112 12.0696 20.112ZM12.0696 18.866C12.5829 18.866 13.0309 18.726 13.4136 18.446C13.8056 18.166 14.1089 17.746 14.3236 17.186C14.5476 16.626 14.6596 15.9307 14.6596 15.1C14.6596 14.2693 14.5476 13.574 14.3236 13.014C14.1089 12.454 13.8056 12.034 13.4136 11.754C13.0309 11.474 12.5829 11.334 12.0696 11.334C11.5562 11.334 11.1036 11.474 10.7116 11.754C10.3196 12.034 10.0116 12.454 9.78755 13.014C9.57289 13.574 9.46555 14.2693 9.46555 15.1C9.46555 15.9307 9.57289 16.626 9.78755 17.186C10.0116 17.746 10.3196 18.166 10.7116 18.446C11.1036 18.726 11.5562 18.866 12.0696 18.866ZM20.2627 20.112C19.5721 20.112 18.9001 20.0047 18.2467 19.79C17.6027 19.5753 17.0754 19.286 16.6647 18.922L17.3087 17.816C17.6354 18.124 18.0601 18.376 18.5827 18.572C19.1054 18.768 19.6654 18.866 20.2627 18.866C20.9907 18.866 21.5554 18.712 21.9567 18.404C22.3674 18.0867 22.5727 17.662 22.5727 17.13C22.5727 16.6167 22.3767 16.206 21.9847 15.898C21.6021 15.5807 20.9907 15.422 20.1507 15.422H19.3667V14.442L22.2787 10.858L22.4747 11.418H17.1127V10.2H23.5807V11.152L20.6827 14.722L19.9547 14.288H20.4167C21.6021 14.288 22.4887 14.554 23.0767 15.086C23.6741 15.618 23.9727 16.2947 23.9727 17.116C23.9727 17.6667 23.8374 18.1707 23.5667 18.628C23.2961 19.0853 22.8854 19.4493 22.3347 19.72C21.7934 19.9813 21.1027 20.112 20.2627 20.112Z" fill="#01B307"/>
</svg>
