<svg width="18" height="19" viewBox="0 0 18 19" fill="none" xmlns="http://www.w3.org/2000/svg">
<path d="M9.00002 7.15672C7.70979 7.15672 6.65686 8.20965 6.65686 9.49989C6.65686 10.7901 7.70979 11.8431 9.00002 11.8431C10.2903 11.8431 11.3432 10.7901 11.3432 9.49989C11.3432 8.20965 10.2903 7.15672 9.00002 7.15672ZM16.0278 9.49989C16.0278 8.52958 16.0365 7.56805 15.9821 6.5995C15.9276 5.4745 15.6709 4.47606 14.8483 3.6534C14.0239 2.82899 13.0272 2.57411 11.9022 2.51961C10.9319 2.46512 9.97033 2.47391 9.00178 2.47391C8.03147 2.47391 7.06994 2.46512 6.10139 2.51961C4.97639 2.57411 3.97795 2.83075 3.1553 3.6534C2.33088 4.47782 2.076 5.4745 2.02151 6.5995C1.96701 7.56981 1.9758 8.53133 1.9758 9.49989C1.9758 10.4684 1.96701 11.4317 2.02151 12.4003C2.076 13.5253 2.33264 14.5237 3.1553 15.3464C3.97971 16.1708 4.97639 16.4257 6.10139 16.4802C7.0717 16.5347 8.03323 16.5259 9.00178 16.5259C9.97209 16.5259 10.9336 16.5347 11.9022 16.4802C13.0272 16.4257 14.0256 16.169 14.8483 15.3464C15.6727 14.522 15.9276 13.5253 15.9821 12.4003C16.0383 11.4317 16.0278 10.4702 16.0278 9.49989ZM9.00002 13.1052C7.0049 13.1052 5.39475 11.495 5.39475 9.49989C5.39475 7.50477 7.0049 5.89461 9.00002 5.89461C10.9951 5.89461 12.6053 7.50477 12.6053 9.49989C12.6053 11.495 10.9951 13.1052 9.00002 13.1052ZM12.753 6.58895C12.2871 6.58895 11.911 6.21278 11.911 5.74696C11.911 5.28114 12.2871 4.90497 12.753 4.90497C13.2188 4.90497 13.5949 5.28114 13.5949 5.74696C13.5951 5.85757 13.5734 5.96712 13.5311 6.06934C13.4889 6.17156 13.4269 6.26443 13.3486 6.34265C13.2704 6.42086 13.1776 6.48288 13.0753 6.52514C12.9731 6.56741 12.8636 6.58909 12.753 6.58895Z" fill="white"/>
</svg>
