<svg width="35" height="35" viewBox="0 0 35 35" fill="none" xmlns="http://www.w3.org/2000/svg">
<circle cx="17.5" cy="17.5" r="17" fill="#01B307" fill-opacity="0.13" stroke="#01B307"/>
<path d="M16.998 14.8322C15.529 14.8322 14.3302 16.031 14.3302 17.5C14.3302 18.969 15.529 20.1678 16.998 20.1678C18.467 20.1678 19.6658 18.969 19.6658 17.5C19.6658 16.031 18.467 14.8322 16.998 14.8322ZM24.9994 17.5C24.9994 16.3953 25.0094 15.3005 24.9474 14.1978C24.8853 12.9169 24.5931 11.7801 23.6565 10.8435C22.7179 9.90487 21.5831 9.61467 20.3022 9.55263C19.1975 9.49059 18.1027 9.5006 17 9.5006C15.8953 9.5006 14.8005 9.49059 13.6978 9.55263C12.4169 9.61467 11.2801 9.90687 10.3435 10.8435C9.40487 11.7821 9.11467 12.9169 9.05263 14.1978C8.99059 15.3025 9.0006 16.3973 9.0006 17.5C9.0006 18.6027 8.99059 19.6995 9.05263 20.8022C9.11467 22.0831 9.40687 23.2199 10.3435 24.1565C11.2821 25.0951 12.4169 25.3853 13.6978 25.4474C14.8025 25.5094 15.8973 25.4994 17 25.4994C18.1047 25.4994 19.1995 25.5094 20.3022 25.4474C21.5831 25.3853 22.7199 25.0931 23.6565 24.1565C24.5951 23.2179 24.8853 22.0831 24.9474 20.8022C25.0114 19.6995 24.9994 18.6047 24.9994 17.5ZM16.998 21.6048C14.7265 21.6048 12.8932 19.7715 12.8932 17.5C12.8932 15.2285 14.7265 13.3952 16.998 13.3952C19.2695 13.3952 21.1028 15.2285 21.1028 17.5C21.1028 19.7715 19.2695 21.6048 16.998 21.6048ZM21.2709 14.1858C20.7405 14.1858 20.3122 13.7575 20.3122 13.2271C20.3122 12.6968 20.7405 12.2685 21.2709 12.2685C21.8012 12.2685 22.2295 12.6968 22.2295 13.2271C22.2297 13.353 22.205 13.4778 22.1569 13.5942C22.1088 13.7105 22.0382 13.8163 21.9491 13.9053C21.8601 13.9944 21.7543 14.065 21.6379 14.1131C21.5216 14.1612 21.3968 14.1859 21.2709 14.1858Z" fill="#01B307"/>
</svg>
