<svg width="159" height="87" viewBox="0 0 159 87" fill="none" xmlns="http://www.w3.org/2000/svg">
<path d="M13.7995 18.0825C14.5329 20.3215 15.2662 27.0386 13.7995 29.2777C12.3327 32.263 13.0662 33.0094 14.5329 33.7558C15.9996 34.5021 16.7329 37.4875 16.7329 38.9802C16.7329 41.2192 18.1997 40.4729 18.1997 44.951C18.1997 49.4291 19.6664 51.6681 21.1332 53.9071C22.5999 55.3998 21.8666 57.6388 21.1332 59.1315C23.3333 60.6242 25.5333 62.1169 27.0001 62.8632C32.1336 64.3559 33.6004 65.8486 34.3338 68.0877C34.3338 69.5804 38.7341 73.3121 40.2008 70.3267C40.9342 68.0877 43.8676 69.5804 46.0677 69.5804C48.2678 69.5804 48.2678 71.8194 49.0012 73.3121C49.0012 74.8048 54.1347 74.0585 56.3349 74.8048C57.8016 75.5512 58.5351 80.0292 61.4685 81.5219C63.6686 83.0146 65.8687 80.0292 68.0688 80.7755C69.5356 81.5219 74.6693 83.0146 77.6028 81.5219C80.5362 80.7755 82.0028 82.2683 85.6697 82.2683C89.3365 82.2683 93.7369 83.0146 95.2036 84.5073C95.937 85.2536 98.8704 86 101.804 86C102.537 84.5073 101.07 80.0292 101.07 78.5365C101.07 77.0439 109.871 69.5804 111.338 68.0877C112.804 66.595 115.004 66.595 115.738 64.356C117.205 62.1169 112.071 55.3998 111.338 53.9071C110.604 52.4144 109.871 46.4436 110.604 44.2046C111.338 41.9655 106.938 40.4729 106.938 38.9802C106.938 37.4875 111.338 34.5021 112.804 33.7558C115.005 33.0094 114.271 26.2923 112.071 24.0533C109.871 22.5606 109.138 19.5752 110.604 15.8435C112.071 12.1117 103.271 9.87268 102.537 9.87268C102.537 9.87268 102.537 9.87269 101.804 9.12635C94.4702 10.619 75.4027 8.38002 73.9359 7.63368C73.2025 6.88733 70.269 6.14096 68.8022 5.39462C68.0689 6.88731 65.8688 8.38001 62.9354 8.38001C58.5351 8.38001 57.8017 3.90192 57.8017 1.66289C57.8017 -0.576152 39.4673 3.15559 34.3338 8.38001C29.2002 13.6044 18.1997 11.3654 17.4663 14.3507C17.4663 16.5898 15.2663 17.3362 14.5329 16.5898C13.7995 17.3362 13.7995 18.0825 13.7995 18.0825Z" stroke="white" stroke-width="2" stroke-miterlimit="10"/>
<rect x="60" y="11" width="83" height="70" fill="url(#paint0_linear_17_2)"/>
<path d="M2.856 41.048C1.824 41.048 0.84 40.7 0.348 40.244L0.624 39.764C1.104 40.172 1.956 40.52 2.88 40.52C4.2 40.52 4.728 40.052 4.728 39.344C4.728 37.52 0.576 38.864 0.576 36.404C0.576 35.456 1.368 34.688 2.952 34.688C3.744 34.688 4.608 34.928 5.1 35.3L4.824 35.78C4.296 35.396 3.612 35.216 2.94 35.216C1.716 35.216 1.176 35.72 1.176 36.392C1.176 38.276 5.328 36.944 5.328 39.332C5.328 40.352 4.452 41.048 2.856 41.048ZM10.1465 34.688C11.9105 34.688 13.2425 35.996 13.2425 37.868C13.2425 39.752 11.9105 41.048 10.1465 41.048C9.04247 41.048 8.10647 40.508 7.60247 39.572V43.328H7.00247V34.736H7.57847V36.212C8.07047 35.252 9.01847 34.688 10.1465 34.688ZM10.1105 40.508C11.5505 40.508 12.6425 39.44 12.6425 37.868C12.6425 36.296 11.5505 35.228 10.1105 35.228C8.67047 35.228 7.59047 36.296 7.59047 37.868C7.59047 39.44 8.67047 40.508 10.1105 40.508ZM15.6761 36.104C16.0601 35.192 16.8881 34.688 18.0641 34.688V35.276C18.0161 35.276 17.9681 35.264 17.9201 35.264C16.5281 35.264 15.7001 36.188 15.7001 37.736V41H15.1001V34.736H15.6761V36.104ZM19.8468 40.484H24.0588V41H19.0788V40.592L23.2068 35.252H19.1388V34.736H23.9868V35.144L19.8468 40.484ZM31.0565 37.844C31.0565 37.892 31.0445 37.952 31.0445 38.012H25.6565C25.7165 39.5 26.8085 40.508 28.3085 40.508C29.1005 40.508 29.8325 40.22 30.3125 39.632L30.6605 40.028C30.1085 40.7 29.2445 41.048 28.2965 41.048C26.4005 41.048 25.0685 39.728 25.0685 37.868C25.0685 36.008 26.3525 34.688 28.0685 34.688C29.7845 34.688 31.0565 35.984 31.0565 37.844ZM28.0685 35.216C26.7365 35.216 25.7645 36.176 25.6685 37.544H30.4685C30.3845 36.188 29.4005 35.216 28.0685 35.216ZM37.8806 32.096H38.4806V41H37.8926V39.524C37.4006 40.496 36.4526 41.048 35.3246 41.048C33.5606 41.048 32.2286 39.74 32.2286 37.868C32.2286 35.984 33.5606 34.688 35.3246 34.688C36.4406 34.688 37.3766 35.24 37.8806 36.188V32.096ZM35.3606 40.508C36.8006 40.508 37.8806 39.44 37.8806 37.868C37.8806 36.296 36.8006 35.228 35.3606 35.228C33.9206 35.228 32.8406 36.296 32.8406 37.868C32.8406 39.44 33.9206 40.508 35.3606 40.508ZM43.1223 34.688C44.6703 34.688 45.5343 35.48 45.5343 37.028V41H44.9583V39.884C44.5623 40.604 43.7943 41.048 42.7023 41.048C41.2983 41.048 40.4463 40.328 40.4463 39.26C40.4463 38.312 41.0463 37.508 42.7863 37.508H44.9343V37.004C44.9343 35.84 44.2983 35.216 43.0743 35.216C42.2103 35.216 41.4303 35.54 40.9143 36.008L40.6143 35.576C41.2383 35.024 42.1503 34.688 43.1223 34.688ZM42.7863 40.556C43.8423 40.556 44.5743 40.052 44.9343 39.152V37.976H42.7983C41.5023 37.976 41.0463 38.516 41.0463 39.236C41.0463 40.052 41.6823 40.556 42.7863 40.556ZM49.7584 33.38C49.4944 33.38 49.2904 33.176 49.2904 32.912C49.2904 32.66 49.4944 32.444 49.7584 32.444C50.0224 32.444 50.2264 32.66 50.2264 32.912C50.2264 33.176 50.0224 33.38 49.7584 33.38ZM48.0304 40.484H52.2424V41H47.2624V40.592L51.3904 35.252H47.3224V34.736H52.1704V35.144L48.0304 40.484ZM57.4236 33.212C57.1476 33.212 56.9316 32.996 56.9316 32.732C56.9316 32.468 57.1476 32.24 57.4236 32.24C57.6996 32.24 57.9156 32.456 57.9156 32.72C57.9156 32.996 57.6996 33.212 57.4236 33.212ZM57.1236 41V34.736H57.7236V41H57.1236ZM71.1345 34.688C72.6465 34.688 73.6305 35.588 73.6305 37.34V41H73.0305V37.388C73.0305 35.972 72.2985 35.228 71.0745 35.228C69.6585 35.228 68.7825 36.176 68.7825 37.664V41H68.1825V37.388C68.1825 35.972 67.4505 35.228 66.2265 35.228C64.8105 35.228 63.9345 36.176 63.9345 37.664V41H63.3345V34.736H63.9105V36.08C64.3185 35.204 65.1705 34.688 66.3105 34.688C67.4385 34.688 68.2665 35.204 68.6025 36.2C69.0105 35.288 69.9225 34.688 71.1345 34.688ZM78.5677 41.048C76.7677 41.048 75.4357 39.728 75.4357 37.868C75.4357 36.008 76.7677 34.688 78.5677 34.688C80.3677 34.688 81.6997 36.008 81.6997 37.868C81.6997 39.728 80.3677 41.048 78.5677 41.048ZM78.5677 40.508C80.0077 40.508 81.0877 39.44 81.0877 37.868C81.0877 36.296 80.0077 35.228 78.5677 35.228C77.1277 35.228 76.0477 36.296 76.0477 37.868C76.0477 39.44 77.1277 40.508 78.5677 40.508ZM86.6211 34.688C88.1451 34.688 89.1651 35.588 89.1651 37.34V41H88.5651V37.388C88.5651 35.972 87.8091 35.228 86.5371 35.228C85.0611 35.228 84.1611 36.176 84.1611 37.664V41H83.5611V34.736H84.1371V36.092C84.5571 35.216 85.4331 34.688 86.6211 34.688ZM94.4913 40.184L94.7433 40.604C94.4313 40.904 93.9273 41.048 93.4593 41.048C92.3553 41.048 91.7553 40.4 91.7553 39.344V35.252H90.6033V34.736H91.7553V33.368H92.3553V34.736H94.3473V35.252H92.3553V39.284C92.3553 40.088 92.7513 40.532 93.5193 40.532C93.8913 40.532 94.2393 40.412 94.4913 40.184ZM98.5285 34.688C100.077 34.688 100.941 35.48 100.941 37.028V41H100.365V39.884C99.9685 40.604 99.2005 41.048 98.1085 41.048C96.7045 41.048 95.8525 40.328 95.8525 39.26C95.8525 38.312 96.4525 37.508 98.1925 37.508H100.341V37.004C100.341 35.84 99.7045 35.216 98.4805 35.216C97.6165 35.216 96.8365 35.54 96.3205 36.008L96.0205 35.576C96.6445 35.024 97.5565 34.688 98.5285 34.688ZM98.1925 40.556C99.2485 40.556 99.9805 40.052 100.341 39.152V37.976H98.2045C96.9085 37.976 96.4525 38.516 96.4525 39.236C96.4525 40.052 97.0885 40.556 98.1925 40.556ZM105.165 33.38C104.901 33.38 104.697 33.176 104.697 32.912C104.697 32.66 104.901 32.444 105.165 32.444C105.429 32.444 105.633 32.66 105.633 32.912C105.633 33.176 105.429 33.38 105.165 33.38ZM103.437 40.484H107.649V41H102.669V40.592L106.797 35.252H102.729V34.736H107.577V35.144L103.437 40.484ZM115.59 34.688C117.114 34.688 118.134 35.588 118.134 37.34V41H117.534V37.388C117.534 35.972 116.778 35.228 115.506 35.228C114.03 35.228 113.13 36.176 113.13 37.664V41H112.53V34.736H113.106V36.092C113.526 35.216 114.402 34.688 115.59 34.688ZM122.716 34.688C124.264 34.688 125.128 35.48 125.128 37.028V41H124.552V39.884C124.156 40.604 123.388 41.048 122.296 41.048C120.892 41.048 120.04 40.328 120.04 39.26C120.04 38.312 120.64 37.508 122.38 37.508H124.528V37.004C124.528 35.84 123.892 35.216 122.668 35.216C121.804 35.216 121.024 35.54 120.508 36.008L120.208 35.576C120.832 35.024 121.744 34.688 122.716 34.688ZM122.38 40.556C123.436 40.556 124.168 40.052 124.528 39.152V37.976H122.392C121.096 37.976 120.64 38.516 120.64 39.236C120.64 40.052 121.276 40.556 122.38 40.556ZM4.128 54.184L4.38 54.604C4.068 54.904 3.564 55.048 3.096 55.048C1.992 55.048 1.392 54.4 1.392 53.344V49.252H0.24V48.736H1.392V47.368H1.992V48.736H3.984V49.252H1.992V53.284C1.992 54.088 2.388 54.532 3.156 54.532C3.528 54.532 3.876 54.412 4.128 54.184ZM11.1346 51.844C11.1346 51.892 11.1226 51.952 11.1226 52.012H5.73459C5.79459 53.5 6.88659 54.508 8.38659 54.508C9.17859 54.508 9.91059 54.22 10.3906 53.632L10.7386 54.028C10.1866 54.7 9.32259 55.048 8.37459 55.048C6.47859 55.048 5.14659 53.728 5.14659 51.868C5.14659 50.008 6.43059 48.688 8.14659 48.688C9.86259 48.688 11.1346 49.984 11.1346 51.844ZM8.14659 49.216C6.81459 49.216 5.84259 50.176 5.74659 51.544H10.5466C10.4626 50.188 9.47859 49.216 8.14659 49.216ZM13.5668 50.104C13.9508 49.192 14.7788 48.688 15.9548 48.688V49.276C15.9068 49.276 15.8588 49.264 15.8108 49.264C14.4188 49.264 13.5908 50.188 13.5908 51.736V55H12.9908V48.736H13.5668V50.104ZM22.8533 51.844C22.8533 51.892 22.8413 51.952 22.8413 52.012H17.4533C17.5133 53.5 18.6053 54.508 20.1053 54.508C20.8973 54.508 21.6293 54.22 22.1093 53.632L22.4573 54.028C21.9053 54.7 21.0413 55.048 20.0933 55.048C18.1973 55.048 16.8653 53.728 16.8653 51.868C16.8653 50.008 18.1493 48.688 19.8653 48.688C21.5813 48.688 22.8533 49.984 22.8533 51.844ZM19.8653 49.216C18.5333 49.216 17.5613 50.176 17.4653 51.544H22.2653C22.1813 50.188 21.1973 49.216 19.8653 49.216ZM27.7695 48.688C29.2935 48.688 30.3135 49.588 30.3135 51.34V55H29.7135V51.388C29.7135 49.972 28.9575 49.228 27.6855 49.228C26.2095 49.228 25.3095 50.176 25.3095 51.664V55H24.7095V48.736H25.2855V50.092C25.7055 49.216 26.5815 48.688 27.7695 48.688ZM33.0837 47.212C32.8077 47.212 32.5917 46.996 32.5917 46.732C32.5917 46.468 32.8077 46.24 33.0837 46.24C33.3597 46.24 33.5757 46.456 33.5757 46.72C33.5757 46.996 33.3597 47.212 33.0837 47.212ZM32.7837 55V48.736H33.3837V55H32.7837ZM41.2166 51.844C41.2166 51.892 41.2046 51.952 41.2046 52.012H35.8166C35.8766 53.5 36.9686 54.508 38.4686 54.508C39.2606 54.508 39.9926 54.22 40.4726 53.632L40.8206 54.028C40.2686 54.7 39.4046 55.048 38.4566 55.048C36.5606 55.048 35.2286 53.728 35.2286 51.868C35.2286 50.008 36.5126 48.688 38.2286 48.688C39.9446 48.688 41.2166 49.984 41.2166 51.844ZM38.2286 49.216C36.8966 49.216 35.9246 50.176 35.8286 51.544H40.6286C40.5446 50.188 39.5606 49.216 38.2286 49.216ZM48.6388 55.048C46.8028 55.048 45.4708 53.728 45.4708 51.868C45.4708 49.996 46.8028 48.688 48.6388 48.688C49.6348 48.688 50.4988 49.072 51.0148 49.84L50.5708 50.164C50.1148 49.528 49.4188 49.228 48.6388 49.228C47.1628 49.228 46.0828 50.284 46.0828 51.868C46.0828 53.452 47.1628 54.508 48.6388 54.508C49.4188 54.508 50.1148 54.208 50.5708 53.572L51.0148 53.896C50.4988 54.652 49.6348 55.048 48.6388 55.048ZM54.9231 48.688C56.4711 48.688 57.3351 49.48 57.3351 51.028V55H56.7591V53.884C56.3631 54.604 55.5951 55.048 54.5031 55.048C53.0991 55.048 52.2471 54.328 52.2471 53.26C52.2471 52.312 52.8471 51.508 54.5871 51.508H56.7351V51.004C56.7351 49.84 56.0991 49.216 54.8751 49.216C54.0111 49.216 53.2311 49.54 52.7151 50.008L52.4151 49.576C53.0391 49.024 53.9511 48.688 54.9231 48.688ZM54.5871 54.556C55.6431 54.556 56.3751 54.052 56.7351 53.152V51.976H54.5991C53.3031 51.976 52.8471 52.516 52.8471 53.236C52.8471 54.052 53.4831 54.556 54.5871 54.556ZM61.6192 49.96L60.4432 50.836V55H59.8432V51.292L58.9552 51.952L58.6792 51.58L59.8432 50.704V46.096H60.4432V50.26L61.3312 49.588L61.6192 49.96ZM68.3104 51.844C68.3104 51.892 68.2984 51.952 68.2984 52.012H62.9104C62.9704 53.5 64.0624 54.508 65.5624 54.508C66.3544 54.508 67.0864 54.22 67.5664 53.632L67.9144 54.028C67.3624 54.7 66.4984 55.048 65.5504 55.048C63.6544 55.048 62.3224 53.728 62.3224 51.868C62.3224 50.008 63.6064 48.688 65.3224 48.688C67.0384 48.688 68.3104 49.984 68.3104 51.844ZM65.3224 49.216C63.9904 49.216 63.0184 50.176 62.9224 51.544H67.7224C67.6384 50.188 66.6544 49.216 65.3224 49.216ZM70.5265 47.212C70.2505 47.212 70.0345 46.996 70.0345 46.732C70.0345 46.468 70.2505 46.24 70.5265 46.24C70.8025 46.24 71.0185 46.456 71.0185 46.72C71.0185 46.996 70.8025 47.212 70.5265 47.212ZM69.1345 57.376C68.6305 57.376 68.1385 57.244 67.8385 56.956L68.0785 56.512C68.3305 56.74 68.6905 56.86 69.0985 56.86C69.8305 56.86 70.2265 56.416 70.2265 55.6V48.736H70.8265V55.624C70.8265 56.68 70.2265 57.376 69.1345 57.376ZM79.6401 46.6C81.7521 46.6 83.0241 47.656 83.0241 49.432C83.0241 51.196 81.7521 52.252 79.6401 52.252H77.2401V55H76.6281V46.6H79.6401ZM79.6401 51.7C81.4401 51.7 82.4001 50.872 82.4001 49.432C82.4001 47.98 81.4401 47.152 79.6401 47.152H77.2401V51.7H79.6401ZM87.3098 55.048C85.5098 55.048 84.1778 53.728 84.1778 51.868C84.1778 50.008 85.5098 48.688 87.3098 48.688C89.1098 48.688 90.4418 50.008 90.4418 51.868C90.4418 53.728 89.1098 55.048 87.3098 55.048ZM87.3098 54.508C88.7498 54.508 89.8298 53.44 89.8298 51.868C89.8298 50.296 88.7498 49.228 87.3098 49.228C85.8698 49.228 84.7898 50.296 84.7898 51.868C84.7898 53.44 85.8698 54.508 87.3098 54.508ZM92.3033 55V46.096H92.9033V55H92.3033ZM97.0162 55.048C95.9842 55.048 95.0002 54.7 94.5082 54.244L94.7842 53.764C95.2642 54.172 96.1162 54.52 97.0402 54.52C98.3602 54.52 98.8882 54.052 98.8882 53.344C98.8882 51.52 94.7362 52.864 94.7362 50.404C94.7362 49.456 95.5282 48.688 97.1122 48.688C97.9042 48.688 98.7682 48.928 99.2602 49.3L98.9842 49.78C98.4562 49.396 97.7722 49.216 97.1002 49.216C95.8762 49.216 95.3362 49.72 95.3362 50.392C95.3362 52.276 99.4882 50.944 99.4882 53.332C99.4882 54.352 98.6122 55.048 97.0162 55.048ZM106.059 55L103.395 51.652L101.763 53.14V55H101.163V46.096H101.763V52.396L105.771 48.736H106.539L103.839 51.268L106.803 55H106.059ZM108.412 47.212C108.136 47.212 107.92 46.996 107.92 46.732C107.92 46.468 108.136 46.24 108.412 46.24C108.688 46.24 108.904 46.456 108.904 46.72C108.904 46.996 108.688 47.212 108.412 47.212ZM108.112 55V48.736H108.712V55H108.112Z" fill="white"/>
<defs>
<linearGradient id="paint0_linear_17_2" x1="101.5" y1="11" x2="101.5" y2="81" gradientUnits="userSpaceOnUse">
<stop stop-color="#0A1E3F" stop-opacity="0"/>
<stop offset="0.124" stop-color="#0A1E3F" stop-opacity="0.8"/>
<stop offset="0.264" stop-color="#0A1E3F"/>
<stop offset="0.679" stop-color="#0A1E3F"/>
<stop offset="0.874" stop-color="#0A1E3F" stop-opacity="0.8"/>
<stop offset="1" stop-color="#0A1E3F" stop-opacity="0"/>
</linearGradient>
</defs>
</svg>
