<svg width="35" height="35" viewBox="0 0 35 35" fill="none" xmlns="http://www.w3.org/2000/svg">
<circle cx="17.5" cy="17.5" r="17" fill="#01B307" fill-opacity="0.13" stroke="#01B307"/>
<g clip-path="url(#clip0_0_69)">
<path d="M24.1478 21.5871L22.268 23.4519C21.9905 23.7365 21.6227 23.8329 21.2645 23.8333C19.6803 23.7859 18.183 23.0077 16.9536 22.2087C14.9355 20.7406 13.0839 18.9202 11.9218 16.7204C11.4761 15.7979 10.9531 14.6209 11.0031 13.5912C11.0075 13.2039 11.1119 12.8237 11.3847 12.5741L13.2645 10.6952C13.6549 10.3631 14.0324 10.4779 14.2822 10.8647L15.7945 13.7325C15.9537 14.0722 15.8624 14.4363 15.6249 14.679L14.9323 15.3712C14.8896 15.4298 14.8624 15.4965 14.8617 15.569C15.1273 16.5971 15.9318 17.5446 16.6426 18.1967C17.3533 18.8487 18.1173 19.7322 19.109 19.9413C19.2316 19.9755 19.3817 19.9875 19.4694 19.906L20.2751 19.0866C20.5528 18.8761 20.9538 18.7733 21.2503 18.9454H21.2644L23.9923 20.5559C24.3928 20.8069 24.4345 21.292 24.1478 21.5871Z" fill="#01B307"/>
</g>
<defs>
<clipPath id="clip0_0_69">
<rect width="13.3333" height="13.3333" fill="white" transform="translate(10.8333 10.833)"/>
</clipPath>
</defs>
</svg>
