<svg width="14" height="18" viewBox="0 0 14 18" fill="none" xmlns="http://www.w3.org/2000/svg">
<path d="M7 17L6.69223 17.3941C6.87309 17.5353 7.12691 17.5353 7.30777 17.3941L7 17ZM12.5 7C12.5 9.48073 11.0909 11.8673 9.61281 13.6763C8.8808 14.5722 8.14759 15.3073 7.59726 15.8184C7.32241 16.0736 7.09399 16.2722 6.93525 16.4062C6.8559 16.4732 6.79403 16.524 6.75254 16.5576C6.7318 16.5745 6.71615 16.587 6.70598 16.5951C6.70089 16.5991 6.69717 16.6021 6.69486 16.6039C6.69371 16.6048 6.69291 16.6054 6.69247 16.6058C6.69225 16.6059 6.69212 16.606 6.69208 16.6061C6.69206 16.6061 6.69209 16.6061 6.69208 16.6061C6.69214 16.606 6.69223 16.6059 7 17C7.30777 17.3941 7.3079 17.3939 7.30805 17.3938C7.30813 17.3938 7.30831 17.3936 7.30847 17.3935C7.3088 17.3933 7.30921 17.3929 7.30972 17.3925C7.31073 17.3917 7.3121 17.3907 7.31383 17.3893C7.31729 17.3866 7.32218 17.3827 7.32844 17.3777C7.34097 17.3678 7.35903 17.3533 7.38223 17.3345C7.42863 17.2969 7.49566 17.2418 7.58037 17.1703C7.74976 17.0273 7.99009 16.8182 8.27774 16.5511C8.85241 16.0175 9.6192 15.2489 10.3872 14.309C11.9091 12.4464 13.5 9.83298 13.5 7H12.5ZM7 17C7.30777 16.6059 7.30786 16.606 7.30792 16.6061C7.30791 16.6061 7.30794 16.6061 7.30792 16.6061C7.30788 16.606 7.30775 16.6059 7.30753 16.6058C7.30709 16.6054 7.30629 16.6048 7.30514 16.6039C7.30283 16.6021 7.29911 16.5991 7.29402 16.5951C7.28385 16.587 7.2682 16.5745 7.24746 16.5576C7.20597 16.524 7.1441 16.4732 7.06475 16.4062C6.90601 16.2722 6.67759 16.0736 6.40274 15.8184C5.85241 15.3073 5.1192 14.5722 4.38719 13.6763C2.90908 11.8673 1.5 9.48073 1.5 7H0.5C0.5 9.83298 2.09092 12.4464 3.61281 14.309C4.3808 15.2489 5.14759 16.0175 5.72226 16.5511C6.00991 16.8182 6.25024 17.0273 6.41963 17.1703C6.50434 17.2418 6.57137 17.2969 6.61777 17.3345C6.64097 17.3533 6.65903 17.3678 6.67156 17.3777C6.67782 17.3827 6.68271 17.3866 6.68617 17.3893C6.6879 17.3907 6.68927 17.3917 6.69028 17.3925C6.69079 17.3929 6.6912 17.3933 6.69153 17.3935C6.69169 17.3936 6.69187 17.3938 6.69195 17.3938C6.6921 17.3939 6.69223 17.3941 7 17ZM1.5 7C1.5 3.96243 3.96243 1.5 7 1.5V0.5C3.41015 0.5 0.5 3.41015 0.5 7H1.5ZM7 1.5C10.0376 1.5 12.5 3.96243 12.5 7H13.5C13.5 3.41015 10.5899 0.5 7 0.5V1.5ZM9.5 7C9.5 8.38071 8.38071 9.5 7 9.5V10.5C8.933 10.5 10.5 8.933 10.5 7H9.5ZM7 9.5C5.61929 9.5 4.5 8.38071 4.5 7H3.5C3.5 8.933 5.067 10.5 7 10.5V9.5ZM4.5 7C4.5 5.61929 5.61929 4.5 7 4.5V3.5C5.067 3.5 3.5 5.067 3.5 7H4.5ZM7 4.5C8.38071 4.5 9.5 5.61929 9.5 7H10.5C10.5 5.067 8.933 3.5 7 3.5V4.5Z" fill="#01B307"/>
</svg>
