<svg width="25" height="25" viewBox="0 0 25 25" fill="none" xmlns="http://www.w3.org/2000/svg">
<path d="M21.9421 21.0579L17.1676 16.2833C18.4939 14.7355 19.1928 12.7431 19.1198 10.7002C19.044 8.57771 18.1411 6.56905 16.604 5.10343C15.0668 3.63782 13.0175 2.8315 10.8938 2.85678C8.77011 2.88205 6.74052 3.73692 5.23874 5.23871C3.73695 6.74049 2.88209 8.77007 2.85681 10.8938C2.83153 13.0175 3.63785 15.0668 5.10346 16.6039C6.56908 18.141 8.57774 19.044 10.7002 19.1198C12.7431 19.1927 14.7355 18.4939 16.2834 17.1675L21.0579 21.9421C21.1752 22.0593 21.3342 22.1252 21.5 22.1252C21.6658 22.1252 21.8249 22.0593 21.9421 21.9421C22.0594 21.8248 22.1252 21.6658 22.1252 21.5C22.1252 21.3342 22.0594 21.1751 21.9421 21.0579ZM4.12501 11C4.12501 9.64023 4.52822 8.31102 5.28366 7.18044C6.03909 6.04985 7.11282 5.16866 8.36906 4.64831C9.6253 4.12796 11.0076 3.99181 12.3413 4.25708C13.6749 4.52236 14.8999 5.17714 15.8614 6.13862C16.8229 7.10011 17.4776 8.32512 17.7429 9.65873C18.0082 10.9924 17.872 12.3747 17.3517 13.6309C16.8313 14.8872 15.9501 15.9609 14.8196 16.7163C13.689 17.4717 12.3599 17.8749 11.0003 17.875C9.17743 17.8731 7.42979 17.1481 6.14084 15.8591C4.85196 14.5703 4.127 12.8227 4.12501 11Z" fill="white" stroke="white" stroke-width="0.5"/>
</svg>
