<svg width="18" height="19" viewBox="0 0 18 19" fill="none" xmlns="http://www.w3.org/2000/svg">
<path d="M9.00074 2C13.143 2 16.5007 5.35775 16.5007 9.5C16.5007 13.6423 13.143 17 9.00074 17C7.67533 17.0021 6.37324 16.6514 5.22824 15.9838L1.50374 17L2.51774 13.274C1.84956 12.1287 1.49853 10.826 1.50074 9.5C1.50074 5.35775 4.85849 2 9.00074 2ZM6.44474 5.975L6.29474 5.981C6.19763 5.98691 6.10273 6.01243 6.01574 6.056C5.93438 6.10207 5.86012 6.15967 5.79524 6.227C5.70524 6.31175 5.65424 6.38525 5.59949 6.4565C5.32208 6.81718 5.17272 7.25998 5.17499 7.715C5.17649 8.0825 5.27249 8.44025 5.42249 8.77475C5.72924 9.45125 6.23399 10.1675 6.89999 10.8312C7.06049 10.991 7.21799 11.1515 7.38749 11.3007C8.21504 12.0293 9.20118 12.5548 10.2675 12.8353L10.6935 12.9005C10.8322 12.908 10.971 12.8975 11.1105 12.8907C11.3289 12.8795 11.5422 12.8203 11.7352 12.7175C11.8335 12.6669 11.9293 12.6119 12.0225 12.5525C12.0225 12.5525 12.0547 12.5315 12.1162 12.485C12.2175 12.41 12.2797 12.3568 12.3637 12.269C12.426 12.2045 12.48 12.1287 12.5212 12.0425C12.5797 11.9202 12.6382 11.687 12.6622 11.4928C12.6802 11.3442 12.675 11.2633 12.6727 11.213C12.6697 11.1328 12.603 11.0495 12.5302 11.0142L12.0937 10.8185C12.0937 10.8185 11.4412 10.5343 11.0422 10.3527C11.0005 10.3345 10.9558 10.3241 10.9102 10.322C10.8589 10.3167 10.8071 10.3225 10.7582 10.3389C10.7093 10.3554 10.6645 10.3821 10.6267 10.4172C10.623 10.4157 10.5727 10.4585 10.0305 11.1155C9.99937 11.1573 9.9565 11.1889 9.90734 11.2063C9.85819 11.2237 9.80498 11.226 9.75449 11.213C9.70564 11.1999 9.65777 11.1834 9.61124 11.1635C9.51824 11.1245 9.48599 11.1095 9.42224 11.0825C8.99179 10.8947 8.59326 10.6409 8.24099 10.3302C8.14649 10.2478 8.05874 10.1578 7.96874 10.0707C7.67368 9.78817 7.41654 9.4685 7.20374 9.11975L7.15949 9.0485C7.12771 9.00062 7.10201 8.94898 7.08299 8.89475C7.05449 8.7845 7.12874 8.696 7.12874 8.696C7.12874 8.696 7.31099 8.4965 7.39574 8.3885C7.47824 8.2835 7.54799 8.1815 7.59299 8.10875C7.68149 7.96625 7.70924 7.82 7.66274 7.70675C7.45274 7.19375 7.23524 6.683 7.01174 6.176C6.96749 6.0755 6.83624 6.0035 6.71699 5.98925C6.67649 5.98475 6.63599 5.98025 6.59549 5.97725C6.49477 5.97225 6.39384 5.97325 6.29324 5.98025L6.44474 5.975Z" fill="white"/>
</svg>
