<svg width="18" height="19" viewBox="0 0 18 19" fill="none" xmlns="http://www.w3.org/2000/svg">
<path d="M9.05737 2.74878H9.1575C10.0823 2.75215 14.7679 2.7859 16.0312 3.12565C16.4132 3.22934 16.7612 3.43145 17.0406 3.71179C17.3199 3.99212 17.5208 4.34086 17.6231 4.72315C17.7367 5.15065 17.8166 5.71653 17.8706 6.3004L17.8819 6.4174L17.9066 6.7099L17.9156 6.8269C17.9888 7.85515 17.9977 8.81815 17.9989 9.02853V9.1129C17.9977 9.33115 17.9876 10.3594 17.9066 11.4304L17.8976 11.5485L17.8875 11.6655C17.8312 12.309 17.748 12.948 17.6231 13.4183C17.5208 13.8006 17.3199 14.1493 17.0406 14.4296C16.7612 14.71 16.4132 14.9121 16.0312 15.0158C14.7262 15.3668 9.76612 15.3915 9.07875 15.3927H8.919C8.57137 15.3927 7.13363 15.3859 5.62612 15.3342L5.43488 15.3274L5.337 15.3229L5.14462 15.315L4.95225 15.3072C3.7035 15.252 2.51437 15.1632 1.9665 15.0147C1.58471 14.9111 1.23677 14.7091 0.957433 14.429C0.678097 14.1489 0.477139 13.8004 0.374625 13.4183C0.24975 12.9492 0.1665 12.309 0.11025 11.6655L0.10125 11.5474L0.09225 11.4304C0.0364088 10.6681 0.00564223 9.90421 0 9.1399L0 9.00153C0.00225 8.75965 0.01125 7.92378 0.072 7.00128L0.079875 6.8854L0.08325 6.8269L0.09225 6.7099L0.117 6.4174L0.12825 6.3004C0.18225 5.71653 0.262125 5.14953 0.37575 4.72315C0.478092 4.34086 0.678974 3.99212 0.95832 3.71179C1.23767 3.43145 1.5857 3.22934 1.96762 3.12565C2.5155 2.9794 3.70462 2.8894 4.95337 2.83315L5.14462 2.82528L5.33812 2.81853L5.43488 2.81515L5.62725 2.80728C6.69792 2.77286 7.76903 2.75373 8.84025 2.7499L9.05737 2.74878ZM7.2 6.36003V11.7803L11.8766 9.07128L7.2 6.36003Z" fill="white"/>
</svg>
